<?xml version="1.0" encoding="UTF-8"?><svg id="Layer_1" xmlns="http://www.w3.org/2000/svg" viewBox="0 0 981 694"><defs><style>.cls-1{fill:#588157;}.cls-2{fill:#dad7cd;}</style></defs><ellipse class="cls-2" cx="490.5" cy="347" rx="490.5" ry="347"/><g><path class="cls-1" d="M273.8,202.76V477.15h-89V202.76h89Zm170.76,0l-78.91,124.43,78.47,149.96h-99.96l-67.73-151.57,76.72-122.82h91.41Z"/><path class="cls-1" d="M468.23,477.15v-197.8c0-24.52,8.11-44.56,24.33-60.1,16.22-15.54,37.26-23.32,63.13-23.32,30.69,0,54.29,12.93,70.8,38.8,10.08-13.94,20.9-23.89,32.44-29.85,11.54-5.96,25.79-8.95,42.74-8.95,26.89,0,47.49,7.77,61.81,23.32,14.32,15.55,21.48,37.93,21.48,67.14v190.77h-89v-178.5c0-8.84-.77-14.71-2.3-17.59-1.53-2.88-4.64-4.32-9.32-4.32-8.77,0-13.15,6.83-13.15,20.5v179.91h-89v-178.5c0-8.71-.8-14.54-2.41-17.49-1.61-2.95-4.75-4.42-9.42-4.42-8.77,0-13.15,7.31-13.15,21.91v178.5h-89Z"/></g></svg>