<?xml version="1.0" standalone="no"?>
<!DOCTYPE svg PUBLIC "-//W3C//DTD SVG 20010904//EN"
 "http://www.w3.org/TR/2001/REC-SVG-20010904/DTD/svg10.dtd">
<svg version="1.0" xmlns="http://www.w3.org/2000/svg"
 width="981.000000pt" height="981.000000pt" viewBox="0 0 981.000000 981.000000"
 preserveAspectRatio="xMidYMid meet">
<metadata>
Created by potrace 1.14, written by Peter Selinger 2001-2017
</metadata>
<g transform="translate(0.000000,981.000000) scale(0.100000,-0.100000)"
fill="#000000" stroke="none">
<path d="M4520 8371 c0 -3 -24 -6 -53 -7 -56 -1 -216 -13 -257 -19 -14 -2 -52
-6 -84 -10 -57 -5 -77 -8 -156 -19 -137 -20 -168 -25 -205 -31 -16 -3 -68 -13
-115 -21 -47 -9 -94 -18 -105 -20 -15 -3 -186 -41 -260 -58 -5 -2 -30 -8 -55
-15 -25 -7 -52 -15 -60 -17 -8 -2 -39 -10 -67 -18 -29 -8 -53 -12 -53 -9 0 3
-6 1 -12 -5 -7 -5 -29 -13 -48 -17 -19 -4 -39 -10 -45 -13 -5 -4 -14 -7 -20
-8 -5 -1 -53 -17 -105 -34 -52 -17 -99 -33 -105 -34 -5 -2 -23 -9 -40 -15 -64
-27 -103 -39 -109 -34 -3 4 -6 1 -6 -5 0 -7 -7 -12 -15 -12 -8 0 -23 -4 -33
-10 -9 -5 -57 -26 -107 -46 -49 -20 -128 -55 -175 -77 -47 -22 -88 -41 -91
-41 -13 -2 -144 -72 -147 -78 -2 -5 -12 -8 -22 -8 -9 0 -23 -7 -30 -15 -6 -8
-21 -17 -31 -20 -62 -20 -394 -231 -564 -358 -239 -180 -515 -440 -676 -637
-83 -102 -169 -218 -169 -228 0 -6 -3 -12 -7 -14 -20 -8 -199 -308 -185 -308
4 0 2 -4 -4 -8 -7 -4 -28 -43 -49 -87 -89 -193 -158 -394 -191 -555 -3 -14
-10 -45 -16 -70 -6 -25 -12 -54 -13 -65 -2 -11 -6 -38 -9 -60 -16 -104 -20
-175 -20 -365 0 -184 3 -228 19 -335 3 -16 7 -48 11 -70 3 -22 10 -60 16 -85
5 -25 11 -53 13 -63 2 -10 14 -52 25 -95 12 -42 23 -81 24 -87 1 -5 4 -14 7
-20 4 -5 9 -22 13 -37 3 -15 11 -40 18 -55 6 -15 12 -31 13 -35 2 -5 4 -10 5
-13 1 -3 3 -8 4 -12 1 -5 12 -30 24 -57 12 -27 22 -51 22 -53 0 -12 91 -192
100 -198 5 -3 10 -15 10 -26 0 -10 5 -19 10 -19 6 0 10 -5 10 -11 0 -5 27 -53
60 -106 33 -52 60 -99 60 -103 0 -5 3 -10 8 -12 4 -1 32 -37 61 -78 55 -76
151 -197 206 -259 43 -49 263 -270 310 -311 105 -93 311 -257 356 -285 9 -5
63 -42 120 -81 247 -168 534 -324 839 -454 78 -33 143 -60 145 -60 1 0 20 -8
41 -17 22 -9 45 -18 52 -19 7 -1 42 -14 78 -28 35 -14 68 -26 73 -26 6 0 22
-5 38 -12 15 -6 33 -12 38 -14 6 -1 33 -10 60 -19 152 -50 554 -153 652 -168
17 -3 35 -7 40 -10 4 -3 31 -8 58 -11 28 -4 57 -9 65 -11 25 -7 161 -28 188
-28 6 0 12 -3 12 -6 0 -3 17 -6 38 -7 34 0 102 -8 162 -18 14 -3 59 -7 100
-10 41 -4 93 -9 115 -12 137 -17 870 -25 1031 -11 249 22 308 28 418 42 26 3
62 8 80 10 42 5 104 14 141 22 17 4 37 7 45 8 18 2 97 16 125 22 11 2 34 6 50
9 17 3 39 7 50 9 26 5 286 65 305 70 20 6 162 45 175 49 6 1 29 8 52 15 23 6
70 21 105 32 35 11 71 22 80 24 9 2 26 9 38 15 12 6 33 14 47 16 24 5 127 43
190 70 17 8 35 14 40 14 4 1 26 9 48 20 22 11 43 19 47 20 4 0 31 11 60 24 29
13 76 34 103 46 81 36 371 183 415 210 8 5 56 34 105 63 50 30 123 76 164 103
40 27 81 54 89 59 9 6 22 16 30 23 7 6 17 12 21 12 4 0 16 8 27 18 10 10 35
28 54 42 19 13 37 27 40 30 3 3 30 24 60 47 30 23 69 54 85 68 17 14 54 47 84
73 119 102 318 309 427 442 16 19 32 37 36 38 5 2 8 8 8 13 0 5 7 17 15 27 48
55 75 91 75 100 0 6 3 12 7 14 8 3 107 149 108 158 0 3 12 23 26 45 31 48 80
142 78 151 0 4 3 10 8 13 12 8 64 117 101 211 16 41 33 84 37 95 5 11 9 22 10
25 0 3 8 30 18 60 37 121 67 227 72 255 2 17 7 40 9 51 2 12 7 39 10 60 3 22
8 50 11 64 19 101 26 479 12 605 -12 102 -26 195 -33 225 -2 8 -13 55 -24 103
-11 49 -27 104 -35 123 -8 19 -14 38 -15 42 -2 20 -24 93 -42 137 -71 175
-117 276 -133 287 -5 4 -7 8 -3 8 20 0 -203 363 -266 433 -9 9 -16 20 -16 23
0 7 -62 83 -154 189 -70 81 -268 279 -347 348 -24 21 -53 45 -64 55 -11 9 -47
39 -80 65 -33 27 -67 54 -75 60 -8 7 -31 23 -50 37 -19 13 -37 27 -40 30 -5 6
-116 84 -149 105 -8 6 -40 26 -71 46 -52 34 -198 120 -285 169 -176 99 -504
249 -700 322 -72 26 -305 106 -330 112 -5 2 -17 6 -25 9 -13 6 -105 31 -150
42 -8 2 -15 4 -15 5 0 1 -7 3 -15 5 -8 2 -60 16 -115 30 -55 14 -109 27 -120
29 -11 2 -27 7 -35 10 -8 3 -28 7 -45 10 -16 3 -77 14 -135 26 -116 24 -129
26 -180 34 -19 3 -44 7 -55 10 -11 2 -47 7 -80 11 -32 3 -62 8 -66 11 -4 2
-37 6 -73 9 -37 2 -70 6 -74 9 -4 2 -43 7 -87 10 -44 4 -104 9 -132 12 -29 2
-88 7 -130 11 -107 7 -833 11 -833 4z"/>
</g>
</svg>
